<svg width="124" height="73" viewBox="0 0 124 73" fill="none" xmlns="http://www.w3.org/2000/svg">
<path d="M7.05322 34H1.99951C1.85303 34 1.77979 33.9268 1.77979 33.7803L1.86768 2.86475C1.86768 2.74756 1.92627 2.68896 2.04346 2.68896H16.4575C16.604 2.68896 16.6772 2.74756 16.6772 2.86475V7.94043C16.6772 8.05762 16.6187 8.11621 16.5015 8.11621H7.27295V15.1035H16.5015C16.6187 15.1035 16.6772 15.1768 16.6772 15.3232L16.7212 20.4209C16.7212 20.5381 16.6479 20.5967 16.5015 20.5967H7.27295V33.7803C7.27295 33.9268 7.19971 34 7.05322 34ZM26.0376 34H20.9399C20.7935 34 20.7202 33.9268 20.7202 33.7803L20.7642 2.86475C20.7642 2.74756 20.8228 2.68896 20.9399 2.68896H25.9937C26.1108 2.68896 26.1694 2.74756 26.1694 2.86475L26.2134 33.7803C26.2134 33.9268 26.1548 34 26.0376 34ZM38.4082 34.4395C36.7822 34.4395 35.3174 34.0366 34.0137 33.231C32.6953 32.4253 31.6333 31.3413 30.8276 29.979C30.0366 28.6167 29.6411 27.0933 29.6411 25.4087V11.1484C29.6411 9.50781 30.0439 8.01367 30.8496 6.66602C31.6406 5.30371 32.7026 4.21973 34.0356 3.41406C35.3687 2.59375 36.8262 2.18359 38.4082 2.18359C40.0635 2.18359 41.5576 2.5791 42.8906 3.37012C44.2236 4.17578 45.2783 5.25244 46.0547 6.6001C46.8457 7.94775 47.2412 9.46387 47.2412 11.1484V13.2139C47.2412 13.3311 47.168 13.3896 47.0215 13.3896H41.9678C41.8506 13.3896 41.792 13.3311 41.792 13.2139V11.5C41.792 10.3574 41.4697 9.4126 40.8252 8.66553C40.1807 7.91846 39.375 7.54492 38.4082 7.54492C37.5439 7.54492 36.7749 7.90381 36.1011 8.62158C35.4272 9.33936 35.0903 10.1816 35.0903 11.1484V25.4087C35.0903 26.3901 35.4199 27.2397 36.0791 27.9575C36.7383 28.6606 37.5146 29.0122 38.4082 29.0122C39.375 29.0122 40.1807 28.668 40.8252 27.9795C41.4697 27.2764 41.792 26.4194 41.792 25.4087V23.1895H38.6499C38.4888 23.1895 38.4082 23.1162 38.4082 22.9697V17.938C38.4082 17.7915 38.4888 17.7183 38.6499 17.7183H47.0654C47.1826 17.7183 47.2412 17.7915 47.2412 17.938V25.4087C47.2412 27.0933 46.8457 28.6167 46.0547 29.979C45.249 31.3413 44.187 32.4253 42.8687 33.231C41.5503 34.0366 40.0635 34.4395 38.4082 34.4395ZM55.7007 34H50.603C50.4858 34 50.4272 33.9268 50.4272 33.7803L50.4712 2.86475C50.4712 2.74756 50.5444 2.68896 50.6909 2.68896H55.7007C55.8472 2.68896 55.9204 2.74756 55.9204 2.86475L55.8765 15.1035H62.6221V2.86475C62.6221 2.74756 62.6807 2.68896 62.7979 2.68896H67.8076C67.9541 2.68896 68.0273 2.74756 68.0273 2.86475L68.1152 33.7803C68.1152 33.9268 68.042 34 67.8955 34H62.8418C62.6953 34 62.6221 33.9268 62.6221 33.7803V20.5527H55.8765V33.7803C55.8765 33.9268 55.8179 34 55.7007 34ZM81.3867 34H76.311C76.1792 34 76.1133 33.9268 76.1133 33.7803V8.11621H70.2686C70.1221 8.11621 70.0488 8.04297 70.0488 7.89648L70.0928 2.86475C70.0928 2.74756 70.1514 2.68896 70.2686 2.68896H87.3633C87.5244 2.68896 87.605 2.74756 87.605 2.86475V7.89648C87.605 8.04297 87.5464 8.11621 87.4292 8.11621H81.5186L81.5625 33.7803C81.5625 33.9268 81.5039 34 81.3867 34Z" fill="white"/>
<path d="M46.0635 69.4395C44.4375 69.4395 42.9507 69.0293 41.603 68.209C40.27 67.3887 39.208 66.29 38.417 64.9131C37.6406 63.5215 37.2524 61.9761 37.2524 60.2769L37.2964 46.2363C37.2964 44.5664 37.6772 43.0576 38.439 41.71C39.2007 40.3477 40.248 39.2563 41.5811 38.436C42.9287 37.6011 44.4229 37.1836 46.0635 37.1836C47.7334 37.1836 49.2202 37.5864 50.5239 38.3921C51.8423 39.1978 52.8896 40.2891 53.666 41.666C54.457 43.0283 54.8525 44.5518 54.8525 46.2363V48.3018C54.8525 48.4189 54.7939 48.4775 54.6768 48.4775H49.623C49.5059 48.4775 49.4473 48.4189 49.4473 48.3018V46.2363C49.4473 45.2402 49.125 44.3833 48.4805 43.6655C47.8359 42.9478 47.0303 42.5889 46.0635 42.5889C44.9941 42.5889 44.1738 42.9551 43.6025 43.6875C43.0312 44.4199 42.7456 45.2695 42.7456 46.2363V60.2769C42.7456 61.3755 43.0679 62.2764 43.7124 62.9795C44.3569 63.668 45.1406 64.0122 46.0635 64.0122C47.0303 64.0122 47.8359 63.6313 48.4805 62.8696C49.125 62.0933 49.4473 61.229 49.4473 60.2769V58.1895C49.4473 58.0723 49.5059 58.0137 49.623 58.0137H54.7207C54.8379 58.0137 54.8965 58.0723 54.8965 58.1895V60.2769C54.8965 61.9614 54.501 63.4995 53.71 64.8911C52.9043 66.2681 51.8423 67.374 50.5239 68.209C49.2056 69.0293 47.7188 69.4395 46.0635 69.4395ZM72.8921 69H58.3462C58.229 69 58.1704 68.9268 58.1704 68.7803L58.2144 37.9087C58.2144 37.7622 58.2876 37.689 58.4341 37.689H63.4438C63.5903 37.689 63.6636 37.7622 63.6636 37.9087L63.6196 63.4629H72.8921C73.0386 63.4629 73.1118 63.5361 73.1118 63.6826V68.7803C73.1118 68.9268 73.0386 69 72.8921 69ZM84.3398 69.4395C82.7578 69.4395 81.293 69.0293 79.9453 68.209C78.5977 67.3887 77.521 66.29 76.7153 64.9131C75.9243 63.5215 75.5288 62.0054 75.5288 60.3647L75.6167 37.8647C75.6167 37.7476 75.6753 37.689 75.7925 37.689H80.8462C80.9634 37.689 81.022 37.7476 81.022 37.8647V60.3647C81.022 61.3755 81.3442 62.2397 81.9888 62.9575C82.6333 63.6606 83.417 64.0122 84.3398 64.0122C85.3066 64.0122 86.1123 63.6606 86.7568 62.9575C87.4014 62.2397 87.7236 61.3755 87.7236 60.3647V37.8647C87.7236 37.7476 87.7822 37.689 87.8994 37.689H92.9531C93.0703 37.689 93.1289 37.7476 93.1289 37.8647L93.2168 60.3647C93.2168 62.02 92.8213 63.5435 92.0303 64.9351C91.2246 66.312 90.1553 67.4106 88.8223 68.231C87.4893 69.0366 85.9951 69.4395 84.3398 69.4395ZM104.994 69H96.9302C96.813 69 96.7544 68.9268 96.7544 68.7803L96.8423 37.8647C96.8423 37.7476 96.9009 37.689 97.0181 37.689H105.675C107.36 37.689 108.891 38.0991 110.268 38.9194C111.615 39.7397 112.677 40.8311 113.454 42.1934C114.23 43.541 114.618 45.0059 114.618 46.5879C114.618 47.877 114.325 49.0781 113.739 50.1914C113.153 51.3047 112.458 52.2056 111.652 52.894C112.516 53.7583 113.19 54.7617 113.673 55.9043C114.157 57.0469 114.398 58.248 114.398 59.5078C114.398 61.251 113.981 62.8403 113.146 64.2759C112.296 65.7114 111.161 66.8613 109.74 67.7256C108.319 68.5752 106.737 69 104.994 69ZM105.675 43.0283H102.248V50.1035H105.675C106.715 50.1035 107.558 49.7373 108.202 49.0049C108.847 48.2578 109.169 47.4521 109.169 46.5879C109.169 45.6357 108.825 44.8081 108.136 44.105C107.448 43.3872 106.627 43.0283 105.675 43.0283ZM104.994 55.5527H102.248L102.204 63.5068H104.994C106.078 63.5068 107.008 63.1113 107.785 62.3203C108.561 61.5293 108.949 60.5918 108.949 59.5078C108.949 58.4238 108.561 57.4937 107.785 56.7173C107.008 55.9409 106.078 55.5527 104.994 55.5527Z" fill="white"/>
<path d="M33.2336 59.4711C33.7914 59.3579 34.3897 59.0822 34.2338 58.4145C34.0905 57.8047 33.3796 57.2956 32.9727 56.8663C32.8037 56.6891 32.5423 56.4425 32.5144 56.1838C32.492 55.9711 32.8426 55.6965 32.9683 55.5505C33.1384 55.3542 33.2418 55.1294 33.2986 54.8762C33.5398 53.8038 32.614 52.9737 31.9326 52.307C31.6608 52.0401 31.2583 52.4694 31.5284 52.7341C32.1858 53.3772 33.2571 54.3135 32.4433 55.2601C32.031 55.7408 31.763 56.1444 32.1163 56.7362C32.3941 57.2037 32.848 57.5734 33.221 57.9628C33.3949 58.1444 33.5896 58.3462 33.6727 58.5895C33.7487 58.8115 33.1816 58.8832 33.0608 58.9089C32.6889 58.9838 32.8666 59.5449 33.2347 59.4711M4.7906 44.4397C5.12365 43.6232 6.09435 43.4695 6.86326 43.3202C7.28435 43.2371 7.66333 43.3202 8.06857 43.1452C8.38029 43.0096 8.58865 42.6044 8.7631 42.3364C9.4456 41.282 10.4557 41.9765 11.3848 42.1472C12.3276 42.3222 13.1436 41.6233 14.0798 41.7622C14.4495 41.8169 14.6097 41.2503 14.2357 41.1951C13.1786 41.0392 12.2593 41.7644 11.2224 41.5122C10.3742 41.3072 9.50412 40.8412 8.71169 41.5057C8.33162 41.8245 8.17357 42.3539 7.77161 42.6361C7.55396 42.7876 7.09732 42.6744 6.84083 42.7236C6.60711 42.7696 6.37394 42.8185 6.14138 42.8701C5.29536 43.0637 4.5631 43.452 4.2224 44.2833C4.07911 44.6349 4.64841 44.7853 4.7906 44.4397Z" fill="white"/>
<path d="M29.5318 56.332C29.5319 56.5176 29.4955 56.7013 29.4246 56.8728C29.3537 57.0443 29.2498 57.2001 29.1186 57.3314C28.9875 57.4627 28.8318 57.5668 28.6604 57.6379C28.489 57.709 28.3053 57.7456 28.1198 57.7457H1.5225C1.14771 57.7454 0.788362 57.5964 0.523397 57.3313C0.258431 57.0662 0.10952 56.7068 0.109375 56.332V45.3016C0.109665 44.927 0.258675 44.5678 0.523656 44.303C0.788637 44.0383 1.14791 43.8895 1.5225 43.8895H28.1192C28.3047 43.8895 28.4884 43.9261 28.6597 43.9971C28.8311 44.0681 28.9867 44.1721 29.1179 44.3033C29.249 44.4345 29.353 44.5902 29.4239 44.7616C29.4949 44.933 29.5313 45.1166 29.5312 45.3021V56.3271" fill="white"/>
<path d="M22.808 56.2719C22.808 56.3496 22.4493 56.4113 22.0063 56.4113H6.92515C6.48272 56.4113 6.12507 56.3496 6.12507 56.2719V55.0906C6.12507 55.0157 6.48272 54.9539 6.92515 54.9539H22.0063C22.4493 54.9539 22.808 55.0157 22.808 55.0906V56.2719ZM5.66077 53.8646C5.66077 53.9395 5.55905 54.0013 5.43491 54.0013H1.19827C1.07304 54.0013 0.972959 53.9395 0.972959 53.8646V52.6828C0.972959 52.6056 1.07358 52.5449 1.19827 52.5449H5.43546C5.5596 52.5449 5.66132 52.6056 5.66132 52.6828V53.8646H5.66077ZM28.88 53.8646C28.88 53.9395 28.8029 54.0013 28.7094 54.0013H25.4806C25.3865 54.0013 25.31 53.9395 25.31 53.8646V52.6828C25.31 52.6056 25.3871 52.5449 25.4806 52.5449H28.7094C28.8034 52.5449 28.88 52.6056 28.88 52.6828V53.8646ZM3.01499 56.2281C3.01499 56.3053 2.95921 56.3671 2.89085 56.3671H1.09765C1.02819 56.3671 0.972412 56.3053 0.972412 56.2281V55.0463C0.972412 54.9703 1.02819 54.9096 1.09765 54.9096H2.89085C2.95921 54.9096 3.01499 54.9703 3.01499 55.0463V56.2281ZM8.00194 53.8646C8.00194 53.9395 7.96968 54.0013 7.92921 54.0013H6.5828C6.54343 54.0013 6.51226 53.9395 6.51226 53.8646V52.6828C6.51226 52.6056 6.54343 52.5449 6.5828 52.5449H7.92921C7.96968 52.5449 8.00194 52.6056 8.00194 52.6828V53.8646ZM10.3513 53.8646C10.3513 53.9395 10.3191 54.0013 10.2797 54.0013H8.93382C8.89335 54.0013 8.86108 53.9395 8.86108 53.8646V52.6828C8.86108 52.6056 8.89335 52.5449 8.93382 52.5449H10.2797C10.3191 52.5449 10.3513 52.6056 10.3513 52.6828V53.8646ZM24.9704 56.3266C24.9704 56.3736 24.937 56.4119 24.8976 56.4119H23.5512C23.5119 56.4119 23.4785 56.3736 23.4785 56.3266V55.5965C23.4785 55.5506 23.5119 55.5123 23.5512 55.5123H24.8976C24.937 55.5123 24.9704 55.5506 24.9704 55.5965V56.3266ZM26.8779 56.3266C26.8779 56.3736 26.8456 56.4119 26.8062 56.4119H25.4587C25.4194 56.4119 25.3882 56.3736 25.3882 56.3266V55.5965C25.3882 55.5506 25.4194 55.5123 25.4587 55.5123H26.8062C26.8456 55.5123 26.8779 55.5506 26.8779 55.5965V56.3266ZM26.8779 55.2328C26.8779 55.2799 26.8456 55.3181 26.8062 55.3181H25.4587C25.4194 55.3181 25.3882 55.2799 25.3882 55.2328V54.5044C25.3882 54.4574 25.4194 54.4191 25.4587 54.4191H26.8062C26.8456 54.4191 26.8779 54.4574 26.8779 54.5044V55.2328ZM28.8423 56.3266C28.8423 56.3736 28.8111 56.4119 28.7706 56.4119H27.4242C27.3848 56.4119 27.3515 56.3736 27.3515 56.3266V55.5965C27.3515 55.5506 27.3848 55.5123 27.4242 55.5123H28.7706C28.8111 55.5123 28.8423 55.5506 28.8423 55.5965V56.3266ZM12.7149 53.8646C12.7149 53.9395 12.6826 54.0013 12.6422 54.0013H11.2958C11.2564 54.0013 11.2252 53.9395 11.2252 53.8646V52.6828C11.2252 52.6056 11.2564 52.5449 11.2958 52.5449H12.6416C12.6821 52.5449 12.7144 52.6056 12.7144 52.6828L12.7149 53.8646ZM15.0681 53.8646C15.0681 53.9395 15.0358 54.0013 14.9954 54.0013H13.649C13.6085 54.0013 13.5773 53.9395 13.5773 53.8646V52.6828C13.5773 52.6056 13.6085 52.5449 13.649 52.5449H14.9954C15.0358 52.5449 15.0681 52.6056 15.0681 52.6828V53.8646ZM17.4333 53.8646C17.4333 53.9395 17.4011 54.0013 17.3628 54.0013H16.0158C15.9765 54.0013 15.9442 53.9395 15.9442 53.8646V52.6828C15.9442 52.6056 15.9765 52.5449 16.0158 52.5449H17.3628C17.4011 52.5449 17.4333 52.6056 17.4333 52.6828V53.8646ZM19.7844 53.8646C19.7844 53.9395 19.7521 54.0013 19.7127 54.0013H18.3652C18.3258 54.0013 18.2936 53.9395 18.2936 53.8646V52.6828C18.2936 52.6056 18.3258 52.5449 18.3652 52.5449H19.7127C19.7521 52.5449 19.7844 52.6056 19.7844 52.6828V53.8646ZM22.1485 53.8646C22.1485 53.9395 22.1173 54.0013 22.078 54.0013H20.7294C20.6911 54.0013 20.6588 53.9395 20.6588 53.8646V52.6828C20.6588 52.6056 20.6911 52.5449 20.7294 52.5449H22.078C22.1173 52.5449 22.1485 52.6056 22.1485 52.6828V53.8646ZM24.5001 53.8646C24.5001 53.9395 24.4678 54.0013 24.4284 54.0013H23.082C23.0426 54.0013 23.0104 53.9395 23.0104 53.8646V52.6828C23.0104 52.6056 23.0426 52.5449 23.082 52.5449H24.4284C24.4678 52.5449 24.5001 52.6056 24.5001 52.6828V53.8646ZM7.53054 51.4813C7.53054 51.5573 7.49827 51.618 7.4589 51.618H6.11304C6.07257 51.618 6.0403 51.5573 6.0403 51.4813V50.2984C6.0403 50.2235 6.07257 50.1617 6.11304 50.1617H7.4589C7.49827 50.1617 7.53054 50.2235 7.53054 50.2984V51.4813ZM9.88101 51.4813C9.88101 51.5573 9.84765 51.618 9.80936 51.618H8.46186C8.42249 51.618 8.39022 51.5573 8.39022 51.4813V50.2984C8.39022 50.2235 8.42249 50.1617 8.46186 50.1617H9.80936C9.84765 50.1617 9.88101 50.2235 9.88101 50.2984V51.4813ZM12.2446 51.4813C12.2446 51.5573 12.2134 51.618 12.1741 51.618H10.8266C10.7861 51.618 10.7549 51.5573 10.7549 51.4813V50.2984C10.7549 50.2235 10.7861 50.1617 10.8266 50.1617H12.1741C12.2134 50.1617 12.2446 50.2235 12.2446 50.2984V51.4813ZM2.82304 51.4813C2.82304 51.5573 2.79077 51.618 2.75249 51.618H1.40554C1.36507 51.618 1.3339 51.5573 1.3339 51.4813V50.2984C1.3339 50.2235 1.36507 50.1617 1.40554 50.1617H2.75304C2.79132 50.1617 2.82358 50.2235 2.82358 50.2984L2.82304 51.4813ZM5.18991 51.4813C5.18991 51.5573 5.15765 51.618 5.11936 51.618H3.77077C3.73249 51.618 3.70022 51.5573 3.70022 51.4813V50.2984C3.70022 50.2235 3.73249 50.1617 3.77077 50.1617H5.11882C5.1571 50.1617 5.18937 50.2235 5.18937 50.2984L5.18991 51.4813ZM14.5956 51.4813C14.5956 51.5573 14.5644 51.618 14.5251 51.618H13.177C13.1387 51.618 13.1065 51.5573 13.1065 51.4813V50.2984C13.1065 50.2235 13.1387 50.1617 13.177 50.1617H14.5251C14.5644 50.1617 14.5956 50.2235 14.5956 50.2984V51.4813ZM16.963 51.4813C16.963 51.5573 16.9308 51.618 16.8914 51.618H15.5444C15.5051 51.618 15.4728 51.5573 15.4728 51.4813V50.2984C15.4728 50.2235 15.5051 50.1617 15.5444 50.1617H16.8914C16.9308 50.1617 16.963 50.2235 16.963 50.2984V51.4813ZM19.3102 51.4813C19.3102 51.5573 19.2791 51.618 19.2397 51.618H17.8938C17.8528 51.618 17.8211 51.5573 17.8211 51.4813V50.2984C17.8211 50.2235 17.8533 50.1617 17.8938 50.1617H19.2397C19.2791 50.1617 19.3102 50.2235 19.3102 50.2984V51.4813ZM21.6793 51.4813C21.6793 51.5573 21.647 51.618 21.6071 51.618H20.2601C20.2208 51.618 20.1896 51.5573 20.1896 51.4813V50.2984C20.1896 50.2235 20.2208 50.1617 20.2601 50.1617H21.6071C21.647 50.1617 21.6793 50.2235 21.6793 50.2984V51.4813ZM24.0287 51.4813C24.0287 51.5573 23.9975 51.618 23.957 51.618H22.6106C22.5701 51.618 22.5379 51.5573 22.5379 51.4813V50.2984C22.5379 50.2235 22.5701 50.1617 22.6106 50.1617H23.957C23.9975 50.1617 24.0287 50.2235 24.0287 50.2984V51.4813ZM8.19499 49.1663C8.19499 49.2435 8.16163 49.3031 8.12335 49.3031H6.77585C6.73647 49.3031 6.70421 49.2435 6.70421 49.1663V47.9846C6.70421 47.9096 6.73647 47.8478 6.77585 47.8478H8.12335C8.16163 47.8478 8.19499 47.9096 8.19499 47.9846V49.1663ZM10.5438 49.1663C10.5438 49.2435 10.5126 49.3031 10.4722 49.3031H9.12522C9.08694 49.3031 9.05468 49.2435 9.05468 49.1663V47.9846C9.05468 47.9096 9.08694 47.8478 9.12522 47.8478H10.4722C10.5126 47.8478 10.5438 47.9096 10.5438 47.9846V49.1663ZM12.9107 49.1663C12.9107 49.2435 12.8784 49.3031 12.8391 49.3031H11.4932C11.4538 49.3031 11.4205 49.2435 11.4205 49.1663V47.9846C11.4205 47.9096 11.4538 47.8478 11.4932 47.8478H12.8391C12.8784 47.8478 12.9107 47.9096 12.9107 47.9846V49.1663ZM3.48749 49.1663C3.48749 49.2435 3.45413 49.3031 3.41585 49.3031H2.0689C2.02952 49.3031 1.99726 49.2435 1.99726 49.1663V47.9846C1.99726 47.9096 2.02952 47.8478 2.0689 47.8478H3.41585C3.45413 47.8478 3.48749 47.9096 3.48749 47.9846V49.1663ZM5.85436 49.1663C5.85436 49.2435 5.8221 49.3031 5.78272 49.3031H4.43522C4.39694 49.3031 4.36358 49.2435 4.36358 49.1663V47.9846C4.36358 47.9096 4.39694 47.8478 4.43522 47.8478H5.78272C5.8221 47.8478 5.85436 47.9096 5.85436 47.9846V49.1663ZM15.2606 49.1663C15.2606 49.2435 15.2283 49.3031 15.189 49.3031H13.8415C13.8026 49.3031 13.7709 49.2435 13.7709 49.1663V47.9846C13.7709 47.9096 13.8032 47.8478 13.8415 47.8478H15.1884C15.2278 47.8478 15.2601 47.9096 15.2601 47.9846V49.1663M17.6258 49.1663C17.6258 49.2435 17.5936 49.3031 17.5531 49.3031H16.2073C16.1668 49.3031 16.1367 49.2435 16.1367 49.1663V47.9846C16.1367 47.9096 16.1668 47.8478 16.2073 47.8478H17.5531C17.5936 47.8478 17.6258 47.9096 17.6258 47.9846V49.1663ZM19.9774 49.1663C19.9774 49.2435 19.944 49.3031 19.9058 49.3031H18.5583C18.5189 49.3031 18.4866 49.2435 18.4866 49.1663V47.9846C18.4866 47.9096 18.5189 47.8478 18.5583 47.8478H19.9058C19.944 47.8478 19.9774 47.9096 19.9774 47.9846V49.1663ZM22.3437 49.1663C22.3437 49.2435 22.3104 49.3031 22.271 49.3031H20.9246C20.8852 49.3031 20.8519 49.2435 20.8519 49.1663V47.9846C20.8519 47.9096 20.8852 47.8478 20.9246 47.8478H22.271C22.3104 47.8478 22.3437 47.9096 22.3437 47.9846V49.1663ZM24.6942 49.1663C24.6942 49.2435 24.6619 49.3031 24.6215 49.3031H23.2751C23.2346 49.3031 23.2034 49.2435 23.2034 49.1663V47.9846C23.2034 47.9096 23.2346 47.8478 23.2751 47.8478H24.6215C24.6619 47.8478 24.6942 47.9096 24.6942 47.9846V49.1663ZM27.1962 49.1663C27.1962 49.2435 27.1628 49.3031 27.1245 49.3031H25.7776C25.7382 49.3031 25.7054 49.2435 25.7054 49.1663V47.9846C25.7054 47.9096 25.7382 47.8478 25.7776 47.8478H27.1245C27.1628 47.8478 27.1962 47.9096 27.1962 47.9846V49.1663ZM27.7862 51.4813C27.7862 51.5573 27.754 51.618 27.7157 51.618H25.2744C25.2351 51.618 25.2028 51.5573 25.2028 51.4813V50.2984C25.2028 50.2235 25.2351 50.1617 25.2744 50.1617H27.7157C27.754 50.1617 27.7862 50.2235 27.7862 50.2984V51.4813ZM7.49116 46.8142C7.49116 46.8903 7.4589 46.9521 7.41952 46.9521H6.07257C6.03429 46.9521 6.00093 46.8903 6.00093 46.8142V45.6313C6.00093 45.5564 6.03429 45.4946 6.07257 45.4946H7.41952C7.4589 45.4946 7.49116 45.5564 7.49116 45.6313V46.8142ZM9.84163 46.8142C9.84163 46.8903 9.80827 46.9521 9.7689 46.9521H8.42249C8.38311 46.9521 8.34975 46.8903 8.34975 46.8142V45.6313C8.34975 45.5564 8.38311 45.4946 8.42249 45.4946H9.7689C9.80827 45.4946 9.84163 45.5564 9.84163 45.6313V46.8142ZM12.2063 46.8142C12.2063 46.8903 12.1741 46.9521 12.1358 46.9521H10.7872C10.7478 46.9521 10.7166 46.8903 10.7166 46.8142V45.6313C10.7166 45.5564 10.7478 45.4946 10.7872 45.4946H12.1358C12.1741 45.4946 12.2063 45.5564 12.2063 45.6313V46.8142ZM2.78366 46.8142C2.78366 46.8903 2.7514 46.9521 2.71202 46.9521H1.36452C1.32515 46.9521 1.29397 46.8903 1.29397 46.8142V45.6313C1.29397 45.5564 1.32515 45.4946 1.36452 45.4946H2.71202C2.7514 45.4946 2.78366 45.5564 2.78366 45.6313V46.8142ZM5.1489 46.8142C5.1489 46.8903 5.11772 46.9521 5.07835 46.9521H3.73249C3.69202 46.9521 3.65976 46.8903 3.65976 46.8142V45.6313C3.65976 45.5564 3.69202 45.4946 3.73249 45.4946H5.07835C5.11772 45.4946 5.1489 45.5564 5.1489 45.6313V46.8142ZM14.5551 46.8142C14.5551 46.8903 14.524 46.9521 14.4857 46.9521H13.1387C13.0994 46.9521 13.0671 46.8903 13.0671 46.8142V45.6313C13.0671 45.5564 13.0994 45.4946 13.1387 45.4946H14.4857C14.524 45.4946 14.5551 45.5564 14.5551 45.6313V46.8142ZM16.9237 46.8142C16.9237 46.8903 16.8903 46.9521 16.852 46.9521H15.5051C15.4657 46.9521 15.4334 46.8903 15.4334 46.8142V45.6313C15.4334 45.5564 15.4657 45.4946 15.5051 45.4946H16.852C16.8903 45.4946 16.9237 45.5564 16.9237 45.6313V46.8142ZM19.2719 46.8142C19.2719 46.8903 19.2397 46.9521 19.1992 46.9521H17.8533C17.814 46.9521 17.7806 46.8903 17.7806 46.8142V45.6313C17.7806 45.5564 17.814 45.4946 17.8533 45.4946H19.1992C19.2397 45.4946 19.2719 45.5564 19.2719 45.6313V46.8142ZM21.6399 46.8142C21.6399 46.8903 21.606 46.9521 21.5677 46.9521H20.2208C20.1814 46.9521 20.1491 46.8903 20.1491 46.8142V45.6313C20.1491 45.5564 20.1814 45.4946 20.2208 45.4946H21.5677C21.606 45.4946 21.6399 45.5564 21.6399 45.6313V46.8142ZM23.9893 46.8142C23.9893 46.8903 23.957 46.9521 23.9176 46.9521H22.5701C22.5319 46.9521 22.4985 46.8903 22.4985 46.8142V45.6313C22.4985 45.5564 22.5319 45.4946 22.5701 45.4946H23.9176C23.957 45.4946 23.9893 45.5564 23.9893 45.6313V46.8142ZM26.4907 46.8142C26.4907 46.8903 26.4584 46.9521 26.419 46.9521H25.0716C25.0333 46.9521 25.001 46.8903 25.001 46.8142V45.6313C25.001 45.5564 25.0333 45.4946 25.0716 45.4946H26.419C26.4584 45.4946 26.4907 45.5564 26.4907 45.6313V46.8142ZM28.8423 46.8142C28.8423 46.8903 28.8111 46.9521 28.7706 46.9521H27.4242C27.3848 46.9521 27.3515 46.8903 27.3515 46.8142V45.6313C27.3515 45.5564 27.3848 45.4946 27.4242 45.4946H28.7706C28.8111 45.4946 28.8423 45.5564 28.8423 45.6313V46.8142ZM5.45132 56.2281C5.45132 56.3058 5.39554 56.3676 5.32718 56.3676H3.53397C3.46452 56.3676 3.40874 56.3058 3.40874 56.2281V55.0469C3.40874 54.972 3.46452 54.9102 3.53397 54.9102H5.32718C5.39554 54.9102 5.45132 54.972 5.45132 55.0469V56.2281Z" fill="#232323"/>
<path d="M32.0853 66.3557C31.6544 66.979 30.9938 67.4057 30.2485 67.5421C29.5032 67.6784 28.7342 67.5134 28.1106 67.0831C27.4874 66.6521 27.0608 65.9914 26.9246 65.2462C26.7883 64.5009 26.9535 63.732 27.3838 63.1084L29.7096 59.7413C29.9228 59.4327 30.1947 59.169 30.5098 58.9655C30.8249 58.7619 31.1769 58.6224 31.5459 58.5549C31.9149 58.4874 32.2936 58.4933 32.6603 58.5721C33.027 58.651 33.3746 58.8013 33.6832 59.0145C33.992 59.2275 34.2558 59.4993 34.4595 59.8144C34.6632 60.1294 34.8028 60.4815 34.8704 60.8505C34.938 61.2195 34.9323 61.5982 34.8535 61.965C34.7746 62.3318 34.6243 62.6794 34.4111 62.9881L32.0853 66.3557Z" fill="white"/>
<path d="M34.3165 59.6078C34.1377 59.3792 33.9251 59.1793 33.6859 59.015C33.3773 58.8018 33.0297 58.6515 32.663 58.5726C32.2962 58.4938 31.9176 58.4879 31.5486 58.5554C31.1796 58.6229 30.8275 58.7624 30.5125 58.966C30.1974 59.1695 29.9255 59.4331 29.7123 59.7418L27.3865 63.1089C26.9561 63.7325 26.791 64.5014 26.9273 65.2466C27.0635 65.9919 27.4901 66.6526 28.1133 67.0836C28.4272 67.2996 28.769 67.4445 29.1195 67.5216C29.5619 64.3465 31.5936 61.395 34.3165 59.6078Z" fill="white"/>
<path d="M30.6408 61.3605C30.9623 61.4759 31.2839 61.4846 31.6043 61.4398L33.1815 59.1566C32.6093 58.8734 31.9542 58.8056 31.3361 58.9655C30.718 59.1255 30.178 59.5025 29.815 60.0278L29.5618 60.3931C29.7876 60.8393 30.1727 61.1845 30.6408 61.3605ZM32.446 62.6052C32.225 62.3454 32.1031 62.0474 32.0304 61.7335L33.6081 59.4497C34.0756 59.8842 34.3711 60.4725 34.4404 61.107C34.5096 61.7415 34.3482 62.3797 33.9854 62.9049L33.7328 63.2713C33.2356 63.2181 32.7765 62.9804 32.446 62.6052Z" fill="#232323"/>
<path d="M31.6558 62.4483C31.6296 62.4863 31.5961 62.5189 31.5573 62.5439C31.5185 62.569 31.475 62.5862 31.4295 62.5944C31.3841 62.6026 31.3374 62.6018 31.2922 62.5919C31.247 62.582 31.2043 62.5633 31.1664 62.5369C31.1284 62.5107 31.0959 62.4774 31.0708 62.4386C31.0457 62.3999 31.0285 62.3567 31.0202 62.3113C31.0118 62.2659 31.0125 62.2194 31.0222 62.1743C31.0319 62.1292 31.0504 62.0864 31.0767 62.0485L32.1398 60.5101C32.1943 60.4372 32.2749 60.3882 32.3648 60.3735C32.4547 60.3588 32.5467 60.3795 32.6216 60.4313C32.6965 60.4831 32.7483 60.5619 32.7663 60.6512C32.7843 60.7404 32.7669 60.8332 32.7179 60.9099L31.6558 62.4483Z" fill="white"/>
</svg>
